<?xml version="1.0" standalone="no"?><!DOCTYPE svg PUBLIC "-//W3C//DTD SVG 1.1//EN" "http://www.w3.org/Graphics/SVG/1.1/DTD/svg11.dtd"><svg t="1615965565673" class="icon" viewBox="0 0 1028 1024" version="1.1" xmlns="http://www.w3.org/2000/svg" p-id="2044" xmlns:xlink="http://www.w3.org/1999/xlink" width="200.78125" height="200"><defs><style type="text/css"></style></defs><path d="M994.493858 872.432475l-238.797996-203.072311c-19.198151-19.395731-45.117301-30.67094-72.393165-31.500774 135.019312-158.5708 115.926536-396.571891-42.644263-531.591203C482.087634-28.751125 244.089836-9.661642 109.070524 148.909157-25.948787 307.479957-6.859305 545.477755 151.711495 680.497067c141.065247 120.115224 348.487603 119.960453 489.371735-0.362229 0.819955 27.279157 12.098457 53.2016 31.504067 72.393165l203.138171 238.797996c28.728074 36.904576 81.932966 43.533372 118.837542 14.805298 36.904576-28.731367 43.533372-81.936259 14.805298-118.840835C1005.047901 881.741767 1000.049138 876.746296 994.493858 872.432475M395.923171 644.662714c-139.191534 0-252.02595-112.837709-252.02595-252.029243 0-139.191534 112.837709-252.029243 252.02595-252.029243 139.194827 0 252.029243 112.841002 252.029243 252.029243C647.955707 531.825005 535.117998 644.662714 395.923171 644.662714" p-id="2045"></path></svg>